<svg version="1.1" xmlns="http://www.w3.org/2000/svg" xmlns:xlink="http://www.w3.org/1999/xlink" viewBox="0 0 172 172"><g fill="none" fill-rule="nonzero" stroke="none" stroke-width="1" stroke-linecap="butt" stroke-linejoin="miter" stroke-miterlimit="10" stroke-dasharray="" stroke-dashoffset="0" font-family="none" font-weight="none" font-size="none" text-anchor="none" style="mix-blend-mode: normal"><path d="M0,172v-172h172v172z" fill="none"></path><path d="M86,86.86c-0.47496,0 -0.86,-0.38504 -0.86,-0.86v0c0,-0.47496 0.38504,-0.86 0.86,-0.86v0c0.47496,0 0.86,0.38504 0.86,0.86v0c0,0.47496 -0.38504,0.86 -0.86,0.86z" fill="#cccccc"></path><g fill="#000000"><path d="M77.39987,57.3332c-11.04856,0 -20.06667,9.01811 -20.06667,20.06667c0,11.04856 9.01811,20.06667 20.06667,20.06667c5.01093,0 9.58903,-1.869 13.11276,-4.92708l1.22057,1.22057v3.70651l16.01302,16.01302c1.5824,1.5824 4.15093,1.5824 5.73333,0c1.5824,-1.5824 1.5824,-4.15093 0,-5.73333l-16.01302,-16.01302h-3.70651l-1.22057,-1.22057c3.05809,-3.52374 4.92708,-8.10183 4.92708,-13.11276c0,-11.04856 -9.01811,-20.06667 -20.06667,-20.06667zM77.39987,63.06653c7.95003,0 14.33333,6.3833 14.33333,14.33333c0,7.95003 -6.3833,14.33333 -14.33333,14.33333c-7.95004,0 -14.33333,-6.3833 -14.33333,-14.33333c0,-7.95004 6.3833,-14.33333 14.33333,-14.33333z"></path></g></g></svg>